# xmcd
#
# Track frame offsets:
#	150
#	28961
#	45678
#	71035
#	99216
#	121263
#	145473
#	166541
#
# Disc length: 2518 seconds
#
# Revision: 1
# Processed by: cddbd v1.4b42PL1 Copyright (c) Steve Scherf et al.
# Submitted via: audiograbber 1.80
#
DISCID=6809d408
DTITLE=Gentle Spirit,  - Scenes from a Summer Day
DYEAR=1900
DGENRE=
TTITLE0=First morning
TTITLE1=The sea and the sun
TTITLE2=Walking in the fields
TTITLE3=The raindance
TTITLE4=Wizard of the dusk
TTITLE5=Dance of the elves
TTITLE6=Silver moonlight
TTITLE7=Second morning
EXTD=
EXTT0=
EXTT1=
EXTT2=
EXTT3=
EXTT4=
EXTT5=
EXTT6=
EXTT7=
PLAYORDER=
